<svg width="11" height="17" viewBox="0 0 11 17" fill="none" xmlns="http://www.w3.org/2000/svg">
<path d="M2.12102 1.26961C2.51154 0.879083 3.14471 0.879083 3.53523 1.26961L10.0945 7.82886C10.485 8.21939 10.485 8.85255 10.0945 9.24308L8.68027 10.6573C8.28975 11.0478 7.65658 11.0478 7.26606 10.6573L0.706805 4.09803C0.316281 3.70751 0.31628 3.07434 0.706805 2.68382L2.12102 1.26961Z" fill="#B25DFF"/>
<path d="M0.779372 14.6075C0.388848 14.217 0.388848 13.5838 0.779372 13.1933L7.41643 6.55623C7.80695 6.1657 8.44012 6.1657 8.83064 6.55623L10.2449 7.97044C10.6354 8.36097 10.6354 8.99413 10.2449 9.38466L3.6078 16.0217C3.21728 16.4122 2.58411 16.4122 2.19359 16.0217L0.779372 14.6075Z" fill="#B25DFF"/>
</svg>
