<svg width="293" height="44" viewBox="0 0 293 44" fill="none" xmlns="http://www.w3.org/2000/svg">
<g clip-path="url(#clip0_2511_76935)">
<path d="M0 13.904C0 10.032 0 6.15996 0 2.34663C0 1.93596 0 1.46663 0.0586235 1.05596C0.117247 0.527964 0.410364 0.175964 0.996599 0.117297C2.87255 -3.64557e-05 4.80712 -3.64557e-05 6.68307 0.117297C7.26931 0.117297 7.62105 0.527964 7.62105 1.11463C7.67967 1.75996 7.67967 2.34663 7.67967 2.99196C7.67967 5.10396 7.67967 7.1573 7.67967 9.2693C7.67967 10.4426 7.85554 10.56 8.91076 9.9733C11.0212 8.7413 13.3075 7.91996 15.7111 7.56796C20.1665 6.92263 24.3287 7.8613 28.1393 10.208C29.0772 10.7946 29.1359 10.9706 28.2565 11.792C27.084 12.9653 25.8529 14.1386 24.7391 15.3706C24.0356 16.1333 23.4494 16.192 22.5114 15.7813C16.5318 13.2586 9.73149 16.4266 8.03141 22.7626C6.03822 30.5066 11.8419 35.7866 17.0008 36.3146C23.6253 37.0773 29.3703 31.9146 29.0772 25.0506C29.0186 24.288 28.9014 23.5253 28.6669 22.8213C28.4324 22.176 28.1979 22.0586 27.6703 22.5866C26.4392 23.76 25.2081 24.992 24.0356 26.224C22.3355 27.9253 20.6355 29.6853 18.8768 31.3866C17.8802 32.384 17.587 32.384 16.6491 31.3866C14.4214 29.216 12.2523 27.0453 10.0832 24.816C9.20388 23.936 9.20388 23.6426 10.0246 22.7626C10.6695 22.0586 11.3729 21.4133 12.0764 20.768C12.8385 20.064 13.1317 20.064 13.8938 20.8266C14.8904 21.7653 15.7697 22.704 16.7077 23.6426C17.7043 24.64 17.7043 24.64 18.7595 23.6426C22.9804 19.4186 27.2013 15.1946 31.3635 11.0293C32.9464 9.4453 32.9464 9.4453 34.5292 11.0293C35.0568 11.5573 35.5844 12.0266 36.0534 12.5546C36.6983 13.2586 36.6397 13.552 36.0534 14.256C35.7017 14.6666 35.2913 15.0186 34.9396 15.3706C34.1188 16.192 34.1188 16.192 34.6465 17.1893C36.0534 19.9466 36.7569 22.88 36.6983 25.9893C36.581 34.848 29.898 42.4746 21.1044 43.7653C12.0764 45.1146 3.69328 39.6586 0.937975 31.2106C0.293117 29.3333 0 27.3386 0 25.2853C0 21.5306 0 17.7173 0 13.904Z" fill="white"/>
<path d="M205.944 10.4426C206.472 10.5013 206.823 10.0906 207.175 9.85593C218.314 3.40259 232.735 9.91459 234.552 23.2319C235.959 33.7333 228.807 42.1226 219.603 43.7066C208.406 45.6426 198.851 37.2533 198.147 27.1039C197.971 24.9333 198.03 22.7039 198.03 20.5333C198.03 14.4906 198.03 8.44793 198.03 2.40526C198.03 0.234594 198.147 0.0585938 200.375 0.0585938C201.547 0.0585938 202.778 0.0585938 203.951 0.0585938C205.475 0.11726 205.71 0.29326 205.71 1.81859C205.71 4.22393 205.71 6.68793 205.71 9.09326C205.768 9.50393 205.592 10.0319 205.944 10.4426ZM227.166 25.6373C227.166 19.6533 222.476 14.9013 216.496 14.9013C210.517 14.9013 205.827 19.5946 205.768 25.5786C205.71 30.6826 209.579 36.4319 216.555 36.3733C223.472 36.3733 227.342 30.5653 227.166 25.6373Z" fill="#FF1376"/>
<path d="M260.23 29.5096C256.185 29.5096 252.14 29.5096 248.094 29.5096C247.625 29.5096 246.922 29.2162 246.688 29.8029C246.453 30.3309 246.922 30.8002 247.215 31.2109C250.791 37.0776 258.647 38.2509 263.747 33.4989C265.447 31.9149 265.388 32.2669 266.795 33.6162C267.733 34.5549 268.671 35.4936 269.609 36.4322C270.43 37.2536 270.43 37.4882 269.609 38.3096C266.678 41.3016 263.161 43.1789 258.998 43.7069C253.253 44.4696 248.27 42.8856 243.991 38.9549C240.825 36.0216 239.008 32.3842 238.363 28.1602C236.956 18.3042 243.874 9.5629 252.843 7.8029C262.75 5.8669 272.775 12.3202 274.416 22.8802C274.71 24.5816 274.768 26.2829 274.475 27.9842C274.241 29.2749 274.123 29.3922 272.834 29.4509C270.02 29.4509 267.206 29.4509 264.392 29.4509C262.985 29.5096 261.578 29.5096 260.23 29.5096ZM256.185 22.0002C259.057 22.0002 261.871 22.0002 264.744 22.0002C266.268 22.0002 266.385 21.8242 265.623 20.4749C265.564 20.4162 265.506 20.2989 265.506 20.2402C261.988 14.4322 253.898 13.0242 248.622 18.3629C247.86 19.1256 247.215 20.0642 246.746 21.0616C246.394 21.7656 246.512 21.9416 247.332 22.0002C247.684 22.0002 247.977 22.0002 248.329 22.0002C250.967 22.0002 253.605 22.0002 256.185 22.0002Z" fill="#FF1376"/>
<path d="M77.1485 33.7928C77.1485 36.3741 77.1485 38.9555 77.1485 41.4781C77.1485 43.1795 76.914 43.4141 75.2726 43.4141C73.8656 43.4141 72.5173 43.4141 71.1103 43.4141C69.7034 43.4141 69.5861 43.2381 69.4689 41.8888C69.4689 41.7715 69.4689 41.5955 69.4689 41.4781C69.4689 40.9501 69.2344 40.7741 68.7068 41.0088C68.4723 41.1261 68.2964 41.2435 68.0619 41.3608C56.9821 47.9315 42.7952 41.3608 40.6848 28.6301C38.9261 17.8355 46.5471 9.03548 55.8096 7.56882C65.3066 6.04348 74.8036 12.2035 76.6796 22.2355C76.9727 23.8781 77.0899 25.5208 77.0899 27.2221C77.1485 29.4515 77.1485 31.6221 77.1485 33.7928ZM48.0127 25.6968C47.8368 30.6835 51.7646 36.4328 58.6822 36.4328C65.7756 36.4328 69.4689 30.5661 69.4103 25.7555C69.3516 19.6541 64.7204 14.9608 58.6235 14.9608C52.7612 14.9608 48.0127 19.7128 48.0127 25.6968Z" fill="white"/>
<path d="M122.523 21.7653C122.523 15.2533 122.523 8.68267 122.523 2.17067C122.523 0.176 122.641 0.0586667 124.575 0C125.689 0 126.862 0 127.975 0C129.91 0 130.027 0.117333 130.027 1.99467C130.027 7.97867 130.027 13.904 130.027 19.888C130.027 20.24 130.027 20.6507 130.027 21.0027C130.027 21.5893 130.32 21.8827 130.907 21.8827C132.372 21.8827 133.838 21.8827 135.362 21.8827C136.124 21.8827 136.535 21.3547 136.945 20.8267C139.173 17.952 141.4 15.136 143.628 12.2613C144.566 11.088 145.445 9.97333 146.383 8.8C146.852 8.15467 147.438 7.92 148.201 7.92C150.428 7.97867 152.656 7.92 154.942 7.92C155.177 7.92 155.411 7.92 155.646 7.97867C156.115 8.096 156.291 8.38933 156.056 8.8C155.822 9.21067 155.528 9.56267 155.235 9.97333C151.542 14.7253 147.79 19.536 144.038 24.288C142.983 25.6373 142.983 25.6373 144.038 27.0453C147.556 31.5627 151.073 36.0213 154.591 40.5387C155.06 41.1253 155.47 41.6533 155.88 42.24C156.291 42.8853 156.115 43.1787 155.353 43.3547C155.06 43.4133 154.766 43.4133 154.473 43.4133C152.421 43.4133 150.37 43.4133 148.318 43.4133C147.38 43.4133 146.735 43.0613 146.149 42.3573C142.983 38.4267 139.759 34.5547 136.652 30.5653C136.007 29.744 135.303 29.3333 134.248 29.392C133.193 29.4507 132.138 29.392 131.083 29.4507C130.145 29.5093 130.027 29.6267 129.969 30.5653C129.969 30.9173 129.969 31.328 129.969 31.68C129.969 35.024 129.969 38.368 129.969 41.712C129.969 43.1787 129.793 43.4133 128.386 43.4133C126.92 43.472 125.455 43.472 123.93 43.4133C122.641 43.3547 122.465 43.1787 122.406 41.888C122.406 41.536 122.406 41.1253 122.406 40.7733C122.523 34.4373 122.523 28.1013 122.523 21.7653Z" fill="white"/>
<path d="M175.929 7.39258C185.484 7.39258 194.16 14.7259 194.278 25.5792C194.336 35.7286 186.481 44.0006 175.987 44.0006C164.263 44.0006 157.579 34.3206 157.638 25.6379C157.755 15.4886 165.787 7.39258 175.929 7.39258ZM186.598 25.6379C186.774 19.8299 181.732 14.9019 175.929 14.9606C170.008 15.0192 165.201 19.8299 165.259 25.7552C165.259 31.6806 170.125 36.3739 175.987 36.3739C181.732 36.3739 186.774 31.5046 186.598 25.6379Z" fill="white"/>
<path d="M110.505 33.441C110.505 30.8597 110.564 28.2783 110.505 25.697C110.446 21.297 108.395 18.0117 104.525 16.017C100.598 14.0223 96.7285 14.4917 93.2111 17.1903C90.5144 19.2437 89.1074 22.0597 89.1074 25.4623C89.1074 30.5663 89.1074 35.6703 89.1074 40.7743C89.1074 43.4143 89.0488 43.473 86.4107 43.473C85.2383 43.473 84.0072 43.5317 82.8347 43.473C81.7795 43.4143 81.545 43.121 81.4277 42.065C81.4277 41.7717 81.4277 41.4783 81.4277 41.185C81.4277 36.1397 81.4277 31.0943 81.4277 26.049C81.4277 21.649 82.7761 17.7183 85.4728 14.257C91.4523 6.57165 102.884 5.10499 110.505 11.0303C115.371 14.8437 117.892 19.9477 118.009 26.1077C118.126 31.2703 118.009 36.3743 118.009 41.537C118.009 41.8303 118.009 42.1237 118.009 42.417C118.009 43.0623 117.657 43.4143 117.071 43.4143C115.195 43.4143 113.378 43.473 111.502 43.4143C110.681 43.4143 110.505 43.0623 110.505 42.0063C110.505 40.0117 110.505 38.017 110.505 36.0223C110.505 35.1423 110.505 34.2623 110.505 33.441Z" fill="white"/>
<path d="M278.52 19.8294C278.52 14.0214 278.52 8.21337 278.52 2.40537C278.52 1.9947 278.52 1.52537 278.52 1.1147C278.52 0.46937 278.871 0.11737 279.458 0.0587031C281.334 -0.0586302 283.151 -0.0586302 285.027 0.0587031C285.848 0.11737 286.024 0.64537 286.024 1.34937C286.024 2.75737 286.024 4.1067 286.024 5.5147C286.024 5.8667 286.024 6.27737 286.024 6.62937C286.082 7.74404 286.199 7.86137 287.255 7.92004C288.427 7.92004 289.658 7.92004 290.831 7.92004C291.182 7.92004 291.476 7.92004 291.827 7.92004C292.531 7.92004 292.882 8.27204 292.882 8.97604C292.882 10.7947 292.941 12.6134 292.882 14.432C292.882 15.2534 292.648 15.488 291.71 15.488C290.303 15.5467 288.837 15.488 287.431 15.488C286.141 15.488 286.024 15.6054 286.024 16.896C286.024 22.7627 286.024 28.6294 286.024 34.496C286.024 35.7867 286.199 35.904 287.548 35.9627C288.896 35.9627 290.186 35.9627 291.534 35.9627C292.707 35.9627 292.882 36.1387 292.882 37.312C292.941 38.9547 292.941 40.5387 292.882 42.1814C292.882 43.2374 292.648 43.472 291.593 43.472C289.072 43.5307 286.551 43.5894 284.03 43.4134C280.572 43.2374 278.344 40.48 278.402 37.2534C278.578 31.4454 278.52 25.6374 278.52 19.8294Z" fill="#FF1376"/>
</g>
<defs>
<clipPath id="clip0_2511_76935">
<rect width="293" height="44" fill="white"/>
</clipPath>
</defs>
</svg>
