<svg width="173" height="26" viewBox="0 0 173 26" fill="none" xmlns="http://www.w3.org/2000/svg">
<path d="M0 8.22941C0 5.94265 0 3.65587 0 1.40375C0 1.16122 0 0.884033 0.0346225 0.641497C0.069245 0.329664 0.242358 0.121776 0.588583 0.0871283C1.6965 0.0178322 2.83905 0.0178322 3.94697 0.0871283C4.29319 0.0871283 4.50093 0.329664 4.50093 0.676145C4.53555 1.05727 4.53555 1.40375 4.53555 1.78488C4.53555 3.03221 4.53555 4.24489 4.53555 5.49222C4.53555 6.18518 4.63942 6.25448 5.26262 5.908C6.50903 5.18039 7.85931 4.69532 9.27883 4.48743C11.9101 4.1063 14.3683 4.66067 16.6188 6.04659C17.1728 6.39307 17.2074 6.49701 16.688 6.98209C15.9956 7.67505 15.2685 8.36801 14.6107 9.09562C14.1952 9.54604 13.849 9.58069 13.295 9.33815C9.76355 7.84829 5.74734 9.71928 4.74328 13.4613C3.56612 18.0348 6.99375 21.1531 10.0405 21.465C13.9529 21.9154 17.3459 18.8664 17.1728 14.8125C17.1381 14.3621 17.0689 13.9117 16.9304 13.4959C16.7919 13.1148 16.6534 13.0455 16.3418 13.3573C15.6147 14.0503 14.8877 14.7779 14.1952 15.5055C13.1912 16.5103 12.1871 17.5497 11.1484 18.5545C10.5599 19.1435 10.3868 19.1435 9.83279 18.5545C8.51714 17.2725 7.2361 15.9906 5.95507 14.6739C5.43573 14.1542 5.43573 13.981 5.92045 13.4613C6.3013 13.0455 6.71677 12.6644 7.13224 12.2832C7.58233 11.8675 7.75544 11.8675 8.20553 12.3179C8.79412 12.8722 9.31345 13.4266 9.86741 13.981C10.456 14.57 10.456 14.57 11.0792 13.981C13.572 11.4863 16.0648 8.99167 18.523 6.53166C19.4578 5.59616 19.4578 5.59616 20.3927 6.53166C20.7043 6.84349 21.0159 7.12068 21.2928 7.43251C21.6737 7.84829 21.6391 8.02153 21.2928 8.4373C21.0851 8.67984 20.8427 8.88773 20.635 9.09562C20.1503 9.58069 20.1503 9.58069 20.4619 10.1697C21.2928 11.7982 21.7083 13.5306 21.6737 15.3669C21.6044 20.5988 17.6575 25.103 12.4641 25.8653C7.13224 26.6622 2.18122 23.4399 0.55396 18.4506C0.173113 17.3418 0 16.1638 0 14.9511C0 12.7337 0 10.4815 0 8.22941Z" fill="white"/>
<path d="M121.629 6.18543C121.94 6.22008 122.148 5.97755 122.356 5.83895C128.934 2.02767 137.451 5.8736 138.525 13.7387C139.356 19.9407 135.132 24.8954 129.696 25.8309C123.083 26.9743 117.439 22.0196 117.024 16.0255C116.92 14.7435 116.955 13.4269 116.955 12.1449C116.955 8.57615 116.955 5.0074 116.955 1.43866C116.955 0.156678 117.024 0.0527344 118.34 0.0527344C119.032 0.0527344 119.759 0.0527344 120.452 0.0527344C121.352 0.0873824 121.49 0.191327 121.49 1.09218C121.49 2.51274 121.49 3.96796 121.49 5.38853C121.525 5.63107 121.421 5.9429 121.629 6.18543ZM134.162 15.1593C134.162 11.6252 131.392 8.81868 127.861 8.81868C124.329 8.81868 121.56 11.5905 121.525 15.1246C121.49 18.139 123.775 21.5345 127.895 21.4999C131.981 21.4999 134.266 18.0697 134.162 15.1593Z" fill="#FF1376"/>
<path d="M153.689 17.4456C151.3 17.4456 148.911 17.4456 146.522 17.4456C146.245 17.4456 145.83 17.2723 145.691 17.6188C145.553 17.9306 145.83 18.2078 146.003 18.4504C148.115 21.9152 152.754 22.6081 155.766 19.8016C156.77 18.8661 156.736 19.074 157.567 19.8709C158.121 20.4253 158.675 20.9797 159.228 21.534C159.713 22.0191 159.713 22.1577 159.228 22.6428C157.497 24.4098 155.42 25.5186 152.962 25.8304C149.569 26.2808 146.626 25.3453 144.098 23.0239C142.229 21.2915 141.156 19.1433 140.775 16.6487C139.944 10.8278 144.029 5.66523 149.326 4.62579C155.178 3.4824 161.098 7.29369 162.068 13.5303C162.241 14.5351 162.275 15.5399 162.102 16.5447C161.964 17.307 161.894 17.3763 161.133 17.4109C159.471 17.4109 157.809 17.4109 156.147 17.4109C155.316 17.4456 154.485 17.4456 153.689 17.4456ZM151.3 13.0106C152.996 13.0106 154.658 13.0106 156.355 13.0106C157.255 13.0106 157.324 12.9067 156.874 12.1098C156.84 12.0751 156.805 12.0058 156.805 11.9712C154.728 8.54102 149.95 7.70946 146.834 10.8624C146.384 11.3129 146.003 11.8672 145.726 12.4562C145.518 12.872 145.587 12.976 146.072 13.0106C146.28 13.0106 146.453 13.0106 146.66 13.0106C148.219 13.0106 149.777 13.0106 151.3 13.0106Z" fill="#FF1376"/>
<path d="M45.5632 19.9737C45.5632 21.4982 45.5632 23.0227 45.5632 24.5125C45.5632 25.5173 45.4247 25.6559 44.4553 25.6559C43.6243 25.6559 42.828 25.6559 41.9971 25.6559C41.1661 25.6559 41.0969 25.552 41.0276 24.7551C41.0276 24.6858 41.0276 24.5818 41.0276 24.5125C41.0276 24.2007 40.8892 24.0968 40.5776 24.2354C40.4391 24.3047 40.3352 24.374 40.1967 24.4433C33.6531 28.3238 25.2744 24.4433 24.028 16.9246C22.9893 10.5494 27.4902 5.35219 32.9606 4.48599C38.5694 3.58514 44.1783 7.22319 45.2862 13.148C45.4593 14.1181 45.5286 15.0883 45.5286 16.0931C45.5632 17.4097 45.5632 18.6917 45.5632 19.9737ZM28.3558 15.1922C28.2519 18.1373 30.5716 21.5328 34.6571 21.5328C38.8464 21.5328 41.0276 18.068 40.993 15.2269C40.9584 11.6235 38.2232 8.85164 34.6225 8.85164C31.1602 8.85164 28.3558 11.6581 28.3558 15.1922Z" fill="white"/>
<path d="M72.3612 12.872C72.3612 9.02606 72.3612 5.14549 72.3612 1.29956C72.3612 0.121522 72.4305 0.0522262 73.573 0.0175781C74.2309 0.0175781 74.9233 0.0175781 75.5811 0.0175781C76.7237 0.0175781 76.7929 0.0868742 76.7929 1.19561C76.7929 4.72971 76.7929 8.22916 76.7929 11.7633C76.7929 11.9711 76.7929 12.2137 76.7929 12.4216C76.7929 12.7681 76.966 12.9413 77.3123 12.9413C78.1778 12.9413 79.0434 12.9413 79.9436 12.9413C80.3937 12.9413 80.636 12.6295 80.8784 12.3176C82.194 10.6199 83.5097 8.95677 84.8253 7.25902C85.3793 6.56606 85.8986 5.90774 86.4526 5.21478C86.7296 4.83365 87.0758 4.69506 87.5259 4.69506C88.8415 4.72971 90.1572 4.69506 91.5075 4.69506C91.646 4.69506 91.7845 4.69506 91.923 4.72971C92.1999 4.79901 92.3038 4.97225 92.1653 5.21478C92.0268 5.45732 91.8537 5.66521 91.6806 5.90774C89.4994 8.71423 87.2835 11.5554 85.0677 14.3619C84.4445 15.1588 84.4445 15.1588 85.0677 15.9903C87.145 18.6582 89.2224 21.2915 91.2998 23.9594C91.5767 24.3058 91.8191 24.6177 92.0614 24.9642C92.3038 25.3453 92.1999 25.5185 91.7498 25.6225C91.5767 25.6571 91.4036 25.6571 91.2305 25.6571C90.0187 25.6571 88.8069 25.6571 87.5951 25.6571C87.0412 25.6571 86.6603 25.4492 86.3141 25.0335C84.4445 22.712 82.5403 20.4253 80.7053 18.0692C80.3244 17.5841 79.9089 17.3416 79.2857 17.3762C78.6625 17.4109 78.0393 17.3762 77.4161 17.4109C76.8622 17.4455 76.7929 17.5148 76.7583 18.0692C76.7583 18.2771 76.7583 18.5196 76.7583 18.7275C76.7583 20.7025 76.7583 22.6774 76.7583 24.6523C76.7583 25.5185 76.6544 25.6571 75.8235 25.6571C74.9579 25.6918 74.0924 25.6918 73.1922 25.6571C72.4305 25.6225 72.3266 25.5185 72.292 24.7563C72.292 24.5484 72.292 24.3058 72.292 24.098C72.3612 20.356 72.3612 16.614 72.3612 12.872Z" fill="white"/>
<path d="M103.902 4.38281C109.546 4.38281 114.67 8.71382 114.739 15.1237C114.774 21.1178 110.134 26.0032 103.937 26.0032C97.0122 26.0032 93.0652 20.2863 93.0998 15.1583C93.1691 9.16424 97.9124 4.38281 103.902 4.38281ZM110.203 15.1583C110.307 11.7282 107.33 8.81776 103.902 8.85241C100.405 8.88706 97.5661 11.7282 97.6008 15.2276C97.6008 18.7271 100.474 21.4989 103.937 21.4989C107.33 21.4989 110.307 18.6232 110.203 15.1583Z" fill="white"/>
<path d="M65.2636 19.7671C65.2636 18.2426 65.2982 16.7181 65.2636 15.1936C65.229 12.595 64.0172 10.6547 61.7321 9.47667C59.4124 8.29863 57.1273 8.57582 55.0499 10.1696C53.4573 11.3823 52.6264 13.0454 52.6264 15.055C52.6264 18.0694 52.6264 21.0838 52.6264 24.0981C52.6264 25.6573 52.5917 25.6919 51.0337 25.6919C50.3413 25.6919 49.6142 25.7266 48.9218 25.6919C48.2986 25.6573 48.1601 25.4841 48.0908 24.8604C48.0908 24.6872 48.0908 24.5139 48.0908 24.3407C48.0908 21.3609 48.0908 18.3812 48.0908 15.4015C48.0908 12.8029 48.8871 10.4815 50.4798 8.43723C54.0113 3.89833 60.7627 3.03213 65.2636 6.53158C68.1373 8.78371 69.626 11.7981 69.6953 15.4361C69.7645 18.4852 69.6953 21.4995 69.6953 24.5486C69.6953 24.7218 69.6953 24.895 69.6953 25.0683C69.6953 25.4494 69.4875 25.6573 69.1413 25.6573C68.0334 25.6573 66.9601 25.6919 65.8522 25.6573C65.3675 25.6573 65.2636 25.4494 65.2636 24.8257C65.2636 23.6477 65.2636 22.4697 65.2636 21.2916C65.2636 20.7719 65.2636 20.2522 65.2636 19.7671Z" fill="white"/>
<path d="M164.492 11.7284C164.492 8.2982 164.492 4.86805 164.492 1.43789C164.492 1.19536 164.492 0.918173 164.492 0.675637C164.492 0.294508 164.7 0.0866201 165.046 0.0519721C166.154 -0.017324 167.227 -0.017324 168.335 0.0519721C168.82 0.0866201 168.923 0.398452 168.923 0.814229C168.923 1.64578 168.923 2.44269 168.923 3.27424C168.923 3.48213 168.923 3.72466 168.923 3.93255C168.958 4.59086 169.027 4.66016 169.651 4.69481C170.343 4.69481 171.07 4.69481 171.763 4.69481C171.97 4.69481 172.143 4.69481 172.351 4.69481C172.767 4.69481 172.974 4.9027 172.974 5.31847C172.974 6.39256 173.009 7.46665 172.974 8.54074C172.974 9.02581 172.836 9.1644 172.282 9.1644C171.451 9.19905 170.585 9.1644 169.754 9.1644C168.993 9.1644 168.923 9.2337 168.923 9.99596C168.923 13.4608 168.923 16.9256 168.923 20.3904C168.923 21.1526 169.027 21.2219 169.824 21.2566C170.62 21.2566 171.382 21.2566 172.178 21.2566C172.87 21.2566 172.974 21.3605 172.974 22.0535C173.009 23.0236 173.009 23.9591 172.974 24.9293C172.974 25.5529 172.836 25.6915 172.213 25.6915C170.724 25.7262 169.235 25.7608 167.746 25.6569C165.704 25.5529 164.388 23.9245 164.423 22.0188C164.526 18.5887 164.492 15.1585 164.492 11.7284Z" fill="#FF1376"/>
</svg>
