<svg width="26" height="26" viewBox="0 0 26 26" fill="none" xmlns="http://www.w3.org/2000/svg">
<path d="M0 8.44141C0.117871 8.44141 0.196452 8.50034 0.275032 8.55928C4.18442 10.9363 8.11346 13.3331 12.0228 15.7101C12.6711 16.103 13.2998 16.103 13.9481 15.7101C17.7789 13.3527 21.6293 11.0149 25.4798 8.67715C25.5584 8.63786 25.6369 8.57892 25.7155 8.53963C25.9513 8.40212 25.9709 8.40212 25.9906 8.67715C25.9906 9.01112 25.9906 9.34508 25.9906 9.65941C25.9906 12.5472 25.9906 15.4154 25.9906 18.3033C25.9906 20.1892 24.7726 21.7019 22.9259 22.0948C22.6312 22.1537 22.3169 22.1734 22.0222 22.1734C16.0108 22.1734 9.99939 22.1734 3.98797 22.1734C1.94487 22.1734 0.451839 20.9357 0.0589355 18.9319C0.0196452 18.9319 0 18.9123 0 18.873C0 15.3958 0 11.9186 0 8.44141Z" fill="#F8CF1C"/>
<path d="M12.9856 3C16.0306 3 19.0756 3 22.101 3C23.7904 3 25.2638 4.10013 25.7746 5.71103C25.8532 5.94678 25.8139 6.06465 25.5978 6.20216C21.4723 8.71674 17.3272 11.251 13.2017 13.7656C13.0249 13.8834 12.8874 13.8834 12.6909 13.7656C8.56542 11.2313 4.42029 8.6971 0.275161 6.18252C0.0787095 6.06465 0.0394191 5.94678 0.0983547 5.73068C0.64842 4.13942 2.12181 3 3.81129 3C6.87594 3 9.92094 3 12.9856 3Z" fill="#F8CF1C"/>
</svg>
