<svg width="26" height="26" viewBox="0 0 26 26" fill="none" xmlns="http://www.w3.org/2000/svg">
<path d="M1.6585 13.6168C1.62267 13.0059 1.6585 12.4309 1.8018 11.8559C1.87345 11.5684 1.8018 11.3168 1.6585 11.0652C-0.240256 7.25586 2.16006 2.6918 6.38747 2.08086C7.78467 1.86523 9.07439 2.08086 10.2925 2.72773C10.6149 2.90742 10.9015 2.94336 11.2597 2.90742C16.5261 2.29648 21.2909 5.24336 23.0463 10.2746C23.6196 11.8918 23.7629 13.5809 23.4404 15.3059C23.3688 15.7012 23.4046 16.0246 23.5479 16.4199C25.0526 20.1215 22.5806 24.3621 18.6398 24.9371C17.3501 25.1168 16.132 24.973 14.9498 24.434C14.699 24.3262 14.4482 24.2902 14.1616 24.3262C8.2504 25.1527 2.58996 21.1277 1.73015 15.1262C1.6585 14.623 1.6585 14.1199 1.6585 13.6168ZM13.051 6.10586C10.8657 6.06992 9.39682 6.4293 8.2504 7.11211C6.45912 8.22617 5.92174 10.5621 7.10398 12.2152C7.60554 12.934 8.32205 13.3652 9.14604 13.6887C10.5074 14.2277 11.9763 14.5152 13.3735 14.8746C13.875 14.9824 14.3407 15.1262 14.7706 15.4137C15.7379 16.0605 15.7738 17.2105 14.8781 17.9293C13.9108 18.684 12.8002 18.7559 11.618 18.5762C10.794 18.4684 10.1492 18.073 9.71924 17.3184C9.50429 16.923 9.32516 16.5277 9.07439 16.1684C8.64448 15.4137 7.85632 15.1262 7.10398 15.4496C6.35164 15.7371 6.02921 16.384 6.27999 17.3184C6.5666 18.5043 7.31893 19.3309 8.28622 19.9777C9.97002 21.0199 11.833 21.0918 13.7317 20.948C14.7348 20.8762 15.6663 20.5887 16.5619 20.1574C18.2457 19.2949 19.1055 17.7137 18.8906 15.8449C18.7115 14.2277 17.6367 13.3293 16.2395 12.7543C14.7706 12.1434 13.1943 11.8918 11.6538 11.4965C11.1523 11.3527 10.6507 11.209 10.2566 10.8855C9.57594 10.3824 9.54012 9.62773 10.185 9.05273C10.5791 8.69336 11.0806 8.51367 11.5822 8.47773C13.051 8.29805 14.3407 8.47773 15.1289 9.95117C15.2722 10.2746 15.4872 10.5621 15.7379 10.8137C16.132 11.209 16.9202 11.2809 17.4217 11.0293C17.9949 10.7418 18.2815 10.1668 18.2099 9.55586C18.0308 8.19023 17.0993 7.39961 15.9887 6.82461C14.8781 6.24961 13.7317 6.06992 13.051 6.10586Z" fill="#F8CF1C"/>
</svg>
