<svg width="26" height="26" viewBox="0 0 26 26" fill="none" xmlns="http://www.w3.org/2000/svg">
<path d="M23.9992 5.66529C24.0227 4.23256 23.5188 3.80722 22.2415 4.07586C21.5853 4.21017 20.9525 4.42284 20.3315 4.6579C16.2419 6.14659 12.2343 7.81438 8.21507 9.47097C5.77773 10.456 3.34038 11.4745 0.914759 12.5043C0.504629 12.6834 -0.0226815 12.8625 0.000754519 13.3998C0.0124725 13.9482 0.551501 14.0826 0.985067 14.2281C1.80533 14.5079 2.66074 14.7094 3.481 14.9892C5.39104 15.6384 7.07843 15.3362 8.74238 14.1833C11.2969 12.426 13.9569 10.8141 16.5934 9.16875C17.027 8.90012 17.6012 8.28449 18.0348 8.7658C18.5621 9.34784 17.7418 9.7508 17.3786 10.0866C15.3865 11.9559 13.3241 13.7803 11.3203 15.6496C10.1251 16.7577 10.1837 17.295 11.5781 18.2016C13.5702 19.5112 15.5857 20.7873 17.5895 22.0969C20.0034 23.6639 21.0697 23.2274 21.5502 20.5074C21.9251 18.3695 22.347 16.2316 22.7102 14.0937C23.2024 11.2395 23.6946 8.38523 23.9992 5.66529Z" fill="#F8CF1C"/>
</svg>
