<svg width="309" height="182" viewBox="0 0 309 182" fill="none" xmlns="http://www.w3.org/2000/svg">
<rect y="78.1016" width="290.057" height="145.964" rx="6" transform="rotate(-45 0 78.1016)" fill="url(#paint0_linear_2511_76595)"/>
<mask id="path-2-outside-1_2511_76595" maskUnits="userSpaceOnUse" x="65.293" y="2.70631" width="101.116" height="101.116" fill="black">
<rect fill="white" x="65.293" y="2.70631" width="101.116" height="101.116"/>
<path d="M83.3526 88.6481L83.3101 88.6905L89.2922 94.6726L84.3708 99.5941L69.3518 84.5751L74.2521 79.6749L79.7887 85.2115L79.8312 85.1691L78.3038 75.6232L84.2435 69.6835L85.4739 82.1993L99.5382 84.4266L93.344 90.6209L83.3526 88.6481ZM102.114 67.7229C101.718 67.3269 101.244 67.1501 100.693 67.1926C100.155 67.2209 99.6391 67.4825 99.1441 67.9775C98.6067 68.5149 98.338 69.0805 98.338 69.6745C98.338 70.2685 98.4724 70.7422 98.7411 71.0958L102.114 67.7229ZM107.926 65.0925C108.11 65.2763 108.294 65.4743 108.478 65.6864C108.662 65.8703 108.81 66.0329 108.923 66.1743L101.414 73.6838C101.626 73.8677 101.866 73.9808 102.135 74.0232C102.418 74.0515 102.701 74.0374 102.984 73.9808C103.281 73.9101 103.564 73.7969 103.832 73.6414C104.115 73.4717 104.37 73.2737 104.596 73.0474C105.048 72.5949 105.345 72.1423 105.487 71.6898C105.628 71.2089 105.678 70.7917 105.635 70.4382L110.875 68.7199C111.186 70.021 111.101 71.3786 110.62 72.7929C110.154 74.1929 109.298 75.5152 108.054 76.7597C107.248 77.5658 106.335 78.2234 105.317 78.7326C104.299 79.2417 103.245 79.5457 102.156 79.6447C101.067 79.7154 99.9714 79.5528 98.8684 79.1568C97.7653 78.7608 96.7187 78.0679 95.7288 77.0779C94.8096 76.1587 94.1449 75.1687 93.7348 74.1081C93.3105 73.0333 93.1196 71.9655 93.162 70.9049C93.2044 69.8159 93.459 68.7553 93.9257 67.7229C94.4065 66.6764 95.0783 65.7218 95.9409 64.8591C96.8177 63.9823 97.7723 63.3388 98.8047 62.9287C99.8229 62.5045 100.862 62.3135 101.923 62.356C102.984 62.3701 104.03 62.6105 105.063 63.0772C106.095 63.5439 107.05 64.2156 107.926 65.0925ZM106.078 55.5702L110.788 50.8609L112.06 52.1337L112.103 52.0913C111.891 51.3983 111.87 50.67 112.039 49.9063C112.223 49.1285 112.633 48.4214 113.27 47.785C113.651 47.4031 113.998 47.1274 114.309 46.9577L118.085 51.4973C117.887 51.6104 117.682 51.7589 117.47 51.9428C117.258 52.0983 117.074 52.2539 116.918 52.4095C116.282 53.0458 115.957 53.7388 115.942 54.4883C115.928 55.2379 116.19 55.8813 116.727 56.4187L122.137 61.8281L117.236 66.7284L106.078 55.5702ZM128.792 41.0448C128.396 40.6488 127.922 40.4721 127.371 40.5145C126.833 40.5428 126.317 40.8044 125.822 41.2994C125.285 41.8368 125.016 42.4025 125.016 42.9964C125.016 43.5904 125.15 44.0642 125.419 44.4177L128.792 41.0448ZM134.604 38.4144C134.788 38.5982 134.972 38.7962 135.156 39.0083C135.34 39.1922 135.488 39.3548 135.601 39.4962L128.092 47.0057C128.304 47.1896 128.545 47.3027 128.813 47.3451C129.096 47.3734 129.379 47.3593 129.662 47.3027C129.959 47.232 130.242 47.1189 130.51 46.9633C130.793 46.7936 131.048 46.5956 131.274 46.3693C131.727 45.9168 132.024 45.4642 132.165 45.0117C132.306 44.5308 132.356 44.1137 132.313 43.7601L137.553 42.0418C137.864 43.3429 137.779 44.7006 137.299 46.1148C136.832 47.5148 135.976 48.8371 134.732 50.0816C133.926 50.8877 133.013 51.5453 131.995 52.0545C130.977 52.5636 129.923 52.8676 128.834 52.9666C127.746 53.0373 126.65 52.8747 125.546 52.4787C124.443 52.0827 123.397 51.3898 122.407 50.3998C121.488 49.4806 120.823 48.4906 120.413 47.43C119.989 46.3552 119.798 45.2875 119.84 44.2268C119.883 43.1378 120.137 42.0772 120.604 41.0448C121.085 39.9983 121.756 39.0437 122.619 38.181C123.496 37.3042 124.45 36.6607 125.483 36.2506C126.501 35.8264 127.54 35.6354 128.601 35.6779C129.662 35.692 130.708 35.9324 131.741 36.3991C132.773 36.8658 133.728 37.5376 134.604 38.4144ZM150.745 33.2196L144.89 27.3648C144.325 26.7991 143.844 26.4597 143.448 26.3465C143.052 26.2334 142.691 26.3395 142.366 26.6647C142.126 26.9052 142.005 27.2516 142.005 27.7042C142.02 28.1426 142.317 28.6517 142.896 29.2315L148.815 35.15L143.915 40.0503L132.756 28.8921L137.529 24.1192L138.76 25.3495L138.802 25.3071C138.76 24.9818 138.753 24.6353 138.781 24.2677C138.809 23.8717 138.88 23.4757 138.993 23.0797C139.106 22.6554 139.283 22.2383 139.523 21.8281C139.75 21.4039 140.054 21.0008 140.436 20.619C141.171 19.8836 141.942 19.3815 142.748 19.1128C143.54 18.83 144.367 18.8088 145.23 19.0492C145.145 18.229 145.216 17.3946 145.442 16.546C145.668 15.6975 146.191 14.8631 147.012 14.0429C147.804 13.2509 148.61 12.756 149.43 12.558C150.264 12.3458 151.063 12.3246 151.827 12.4943C152.605 12.6499 153.326 12.9469 153.991 13.3853C154.656 13.7954 155.221 14.2338 155.688 14.7005L162.476 21.4887L157.576 26.389L151.636 20.4493C151.028 19.8412 150.547 19.5159 150.194 19.4735C149.84 19.4028 149.508 19.523 149.197 19.8341C148.914 20.1169 148.808 20.4917 148.878 20.9584C148.935 21.4109 149.218 21.8918 149.727 22.4009L155.645 28.3194L150.745 33.2196Z"/>
</mask>
<path d="M83.3526 88.6481L83.74 86.6859L82.693 86.4792L81.9383 87.2339L83.3526 88.6481ZM83.3101 88.6905L81.8959 87.2763L80.4817 88.6905L81.8959 90.1047L83.3101 88.6905ZM89.2922 94.6726L90.7065 96.0868L92.1207 94.6726L90.7065 93.2584L89.2922 94.6726ZM84.3708 99.5941L82.9566 101.008L84.3708 102.423L85.785 101.008L84.3708 99.5941ZM69.3518 84.5751L67.9376 83.1609L66.5234 84.5751L67.9376 85.9893L69.3518 84.5751ZM74.2521 79.6749L75.6663 78.2607L74.2521 76.8465L72.8379 78.2607L74.2521 79.6749ZM79.7887 85.2115L78.3745 86.6257L79.7887 88.04L81.2029 86.6257L79.7887 85.2115ZM79.8312 85.1691L81.2454 86.5833L81.9674 85.8613L81.806 84.8531L79.8312 85.1691ZM78.3038 75.6232L76.8896 74.2089L76.1676 74.9309L76.3289 75.9391L78.3038 75.6232ZM84.2435 69.6835L86.2339 69.4878L85.8201 65.2784L82.8293 68.2692L84.2435 69.6835ZM85.4739 82.1993L83.4835 82.3949L83.6347 83.9329L85.161 84.1746L85.4739 82.1993ZM99.5382 84.4266L100.952 85.8409L103.728 83.0653L99.8511 82.4513L99.5382 84.4266ZM93.344 90.6209L92.9565 92.583L94.0035 92.7897L94.7582 92.0351L93.344 90.6209ZM81.9383 87.2339L81.8959 87.2763L84.7243 90.1047L84.7668 90.0623L81.9383 87.2339ZM81.8959 90.1047L87.878 96.0868L90.7065 93.2584L84.7243 87.2763L81.8959 90.1047ZM87.878 93.2584L82.9566 98.1799L85.785 101.008L90.7065 96.0868L87.878 93.2584ZM85.785 98.1799L70.7661 83.1609L67.9376 85.9893L82.9566 101.008L85.785 98.1799ZM70.7661 85.9893L75.6663 81.0891L72.8379 78.2607L67.9376 83.1609L70.7661 85.9893ZM72.8379 81.0891L78.3745 86.6257L81.2029 83.7973L75.6663 78.2607L72.8379 81.0891ZM81.2029 86.6257L81.2454 86.5833L78.4169 83.7549L78.3745 83.7973L81.2029 86.6257ZM81.806 84.8531L80.2787 75.3072L76.3289 75.9391L77.8563 85.4851L81.806 84.8531ZM79.718 77.0374L85.6577 71.0977L82.8293 68.2692L76.8896 74.2089L79.718 77.0374ZM82.2531 69.8791L83.4835 82.3949L87.4643 82.0036L86.2339 69.4878L82.2531 69.8791ZM85.161 84.1746L99.2254 86.402L99.8511 82.4513L85.7867 80.2239L85.161 84.1746ZM98.124 83.0124L91.9298 89.2067L94.7582 92.0351L100.952 85.8409L98.124 83.0124ZM93.7314 88.6588L83.74 86.6859L82.9651 90.6102L92.9565 92.583L93.7314 88.6588ZM102.114 67.7229L103.528 69.1371L104.942 67.7229L103.528 66.3087L102.114 67.7229ZM100.693 67.1926L100.798 69.1898L100.822 69.1885L100.846 69.1867L100.693 67.1926ZM98.7411 71.0958L97.1487 72.306L98.5351 74.1302L100.155 72.51L98.7411 71.0958ZM108.478 65.6864L106.967 66.9963L107.013 67.0502L107.064 67.1006L108.478 65.6864ZM108.923 66.1743L110.338 67.5885L111.603 66.3228L110.485 64.9249L108.923 66.1743ZM101.414 73.6838L99.9997 72.2696L98.4809 73.7884L100.104 75.1952L101.414 73.6838ZM102.135 74.0232L101.823 75.9987L101.88 76.0076L101.936 76.0133L102.135 74.0232ZM102.984 73.9808L103.376 75.942L103.412 75.9348L103.447 75.9264L102.984 73.9808ZM103.832 73.6414L104.834 75.3722L104.848 75.3644L104.861 75.3564L103.832 73.6414ZM105.487 71.6898L107.396 72.2863L107.401 72.2703L107.406 72.2541L105.487 71.6898ZM105.635 70.4382L105.012 68.5378L103.454 69.0486L103.65 70.6765L105.635 70.4382ZM110.875 68.7199L112.82 68.2548L112.315 66.1429L110.252 66.8195L110.875 68.7199ZM110.62 72.7929L108.727 72.149L108.723 72.1604L110.62 72.7929ZM105.317 78.7326L104.423 76.9437L105.317 78.7326ZM102.156 79.6447L102.286 81.6405L102.312 81.6388L102.337 81.6365L102.156 79.6447ZM98.8684 79.1568L99.5441 77.2744L98.8684 79.1568ZM93.7348 74.1081L95.6002 73.3868L95.5951 73.3737L93.7348 74.1081ZM93.162 70.9049L95.1604 70.9848L95.1605 70.9827L93.162 70.9049ZM93.9257 67.7229L92.1083 66.8879L92.1032 66.8991L93.9257 67.7229ZM98.8047 62.9287L99.5431 64.7874L99.5586 64.7813L99.5739 64.7749L98.8047 62.9287ZM101.923 62.356L101.843 64.3544L101.87 64.3554L101.896 64.3558L101.923 62.356ZM105.063 63.0772L104.239 64.8996L104.239 64.8996L105.063 63.0772ZM103.528 66.3087C102.725 65.5057 101.681 65.1106 100.539 65.1985L100.846 69.1867C100.856 69.1859 100.85 69.1873 100.832 69.1849C100.813 69.1825 100.789 69.177 100.762 69.1671C100.736 69.1572 100.715 69.146 100.702 69.1374C100.69 69.1291 100.689 69.1268 100.7 69.1371L103.528 66.3087ZM100.588 65.1953C99.4232 65.2566 98.4665 65.8267 97.7299 66.5632L100.558 69.3917C100.687 69.2633 100.772 69.2116 100.807 69.1939C100.835 69.1795 100.828 69.1882 100.798 69.1898L100.588 65.1953ZM97.7299 66.5632C96.9273 67.3658 96.338 68.4127 96.338 69.6745H100.338C100.338 69.6905 100.332 69.6925 100.346 69.6629C100.364 69.6252 100.418 69.5322 100.558 69.3917L97.7299 66.5632ZM96.338 69.6745C96.338 70.559 96.5388 71.5034 97.1487 72.306L100.333 69.8856C100.366 69.9282 100.369 69.9524 100.363 69.9297C100.355 69.9024 100.338 69.8236 100.338 69.6745H96.338ZM100.155 72.51L103.528 69.1371L100.7 66.3087L97.3269 69.6816L100.155 72.51ZM106.512 66.5067C106.66 66.6544 106.811 66.8173 106.967 66.9963L109.989 64.3766C109.777 64.1313 109.561 63.8982 109.341 63.6782L106.512 66.5067ZM107.064 67.1006C107.216 67.2527 107.31 67.3587 107.362 67.4237L110.485 64.9249C110.311 64.7071 110.108 64.4879 109.892 64.2722L107.064 67.1006ZM107.509 64.7601L99.9997 72.2696L102.828 75.098L110.338 67.5885L107.509 64.7601ZM100.104 75.1952C100.589 75.6158 101.173 75.896 101.823 75.9987L102.447 72.0477C102.495 72.0553 102.55 72.071 102.605 72.0969C102.66 72.1226 102.699 72.1512 102.724 72.1724L100.104 75.1952ZM101.936 76.0133C102.419 76.0616 102.901 76.0369 103.376 75.942L102.591 72.0196C102.5 72.0379 102.417 72.0414 102.334 72.0331L101.936 76.0133ZM103.447 75.9264C103.936 75.8099 104.4 75.6235 104.834 75.3722L102.83 71.9105C102.727 71.9704 102.625 72.0103 102.52 72.0352L103.447 75.9264ZM104.861 75.3564C105.28 75.1051 105.665 74.807 106.01 74.4616L103.182 71.6332C103.075 71.7403 102.95 71.8382 102.803 71.9264L104.861 75.3564ZM106.01 74.4616C106.615 73.8569 107.13 73.1362 107.396 72.2863L103.578 71.0932C103.561 71.1484 103.482 71.3328 103.182 71.6332L106.01 74.4616ZM107.406 72.2541C107.595 71.6115 107.706 70.9088 107.621 70.1999L103.65 70.6765C103.649 70.6747 103.662 70.8063 103.568 71.1254L107.406 72.2541ZM106.259 72.3386L111.498 70.6203L110.252 66.8195L105.012 68.5378L106.259 72.3386ZM108.93 69.1851C109.143 70.0773 109.101 71.0492 108.727 72.1491L112.514 73.4367C113.102 71.708 113.229 69.9647 112.82 68.2548L108.93 69.1851ZM108.723 72.1604C108.372 73.2144 107.706 74.2786 106.639 75.3455L109.468 78.1739C110.89 76.7518 111.936 75.1715 112.518 73.4253L108.723 72.1604ZM106.639 75.3455C105.985 75.9998 105.248 76.5309 104.423 76.9437L106.212 80.5214C107.422 79.916 108.51 79.1318 109.468 78.1739L106.639 75.3455ZM104.423 76.9437C103.618 77.3459 102.806 77.5774 101.975 77.6529L102.337 81.6365C103.685 81.514 104.98 81.1374 106.212 80.5214L104.423 76.9437ZM102.027 77.6489C101.231 77.7006 100.409 77.5848 99.5441 77.2744L98.1926 81.0392C99.5342 81.5208 100.904 81.7303 102.286 81.6405L102.027 77.6489ZM99.5441 77.2744C98.7675 76.9956 97.9644 76.4851 97.143 75.6637L94.3146 78.4921C95.4731 79.6506 96.7631 80.526 98.1926 81.0392L99.5441 77.2744ZM97.143 75.6637C96.3927 74.9134 95.8964 74.1529 95.6002 73.3868L91.8693 74.8294C92.3934 76.1846 93.2264 77.404 94.3146 78.4921L97.143 75.6637ZM95.5951 73.3737C95.2638 72.5346 95.1301 71.7436 95.1604 70.9848L91.1636 70.8249C91.1091 72.1875 91.3571 73.5319 91.8744 74.8424L95.5951 73.3737ZM95.1605 70.9827C95.1925 70.1617 95.3834 69.3536 95.7481 68.5467L92.1032 66.8991C91.5346 68.1569 91.2164 69.4702 91.1635 70.827L95.1605 70.9827ZM95.743 68.5579C96.1191 67.7393 96.6501 66.9784 97.3551 66.2733L94.5267 63.4449C93.5064 64.4652 92.6939 65.6134 92.1083 66.8879L95.743 68.5579ZM97.3551 66.2733C98.0617 65.5667 98.7918 65.0859 99.5431 64.7874L98.0663 61.07C96.7528 61.5918 95.5737 62.3979 94.5267 63.4449L97.3551 66.2733ZM99.5739 64.7749C100.334 64.458 101.085 64.324 101.843 64.3544L102.003 60.3576C100.64 60.303 99.3115 60.5509 98.0355 61.0826L99.5739 64.7749ZM101.896 64.3558C102.664 64.366 103.44 64.5385 104.239 64.8996L105.886 61.2548C104.621 60.6826 103.304 60.3742 101.95 60.3561L101.896 64.3558ZM104.239 64.8996C105.031 65.258 105.79 65.7843 106.512 66.5067L109.341 63.6782C108.309 62.647 107.158 61.8298 105.886 61.2548L104.239 64.8996ZM106.078 55.5702L104.664 54.156L103.25 55.5702L104.664 56.9844L106.078 55.5702ZM110.788 50.8609L112.202 49.4467L110.788 48.0325L109.373 49.4467L110.788 50.8609ZM112.06 52.1337L110.646 53.5479L112.06 54.9621L113.475 53.5479L112.06 52.1337ZM112.103 52.0913L113.517 53.5055L114.367 52.6554L114.015 51.5058L112.103 52.0913ZM112.039 49.9063L110.093 49.4462L110.09 49.4593L110.087 49.4724L112.039 49.9063ZM114.309 46.9577L115.847 45.6787L114.795 44.4144L113.351 45.2019L114.309 46.9577ZM118.085 51.4973L119.077 53.2338L121.147 52.0511L119.623 50.2183L118.085 51.4973ZM117.47 51.9428L118.653 53.5556L118.718 53.5074L118.78 53.4541L117.47 51.9428ZM115.942 54.4883L117.942 54.5261L115.942 54.4883ZM122.137 61.8281L123.551 63.2423L124.965 61.8281L123.551 60.4139L122.137 61.8281ZM117.236 66.7284L115.822 68.1426L117.236 69.5568L118.651 68.1426L117.236 66.7284ZM107.493 56.9844L112.202 52.2751L109.373 49.4467L104.664 54.156L107.493 56.9844ZM109.373 52.2751L110.646 53.5479L113.475 50.7195L112.202 49.4467L109.373 52.2751ZM113.475 53.5479L113.517 53.5055L110.689 50.677L110.646 50.7195L113.475 53.5479ZM114.015 51.5058C113.912 51.1695 113.891 50.794 113.992 50.3402L110.087 49.4724C109.848 50.546 109.869 51.627 110.191 52.6767L114.015 51.5058ZM113.986 50.3663C114.074 49.9939 114.276 49.6071 114.684 49.1992L111.855 46.3708C110.99 47.2357 110.373 48.2631 110.093 49.4462L113.986 50.3663ZM114.684 49.1992C114.993 48.8896 115.187 48.7571 115.267 48.7134L113.351 45.2019C112.809 45.4976 112.31 45.9167 111.855 46.3708L114.684 49.1992ZM112.771 48.2366L116.547 52.7762L119.623 50.2183L115.847 45.6787L112.771 48.2366ZM117.093 49.7608C116.759 49.9512 116.449 50.181 116.16 50.4314L118.78 53.4541C118.915 53.3368 119.015 53.2696 119.077 53.2338L117.093 49.7608ZM116.287 50.33C116.008 50.5345 115.744 50.7554 115.504 50.9952L118.333 53.8237C118.404 53.7524 118.507 53.6622 118.653 53.5556L116.287 50.33ZM115.504 50.9952C114.58 51.9194 113.969 53.0831 113.943 54.4506L117.942 54.5261C117.945 54.3946 117.984 54.1723 118.333 53.8237L115.504 50.9952ZM113.943 54.4506C113.918 55.752 114.397 56.9172 115.313 57.833L118.142 55.0045C117.983 54.8455 117.938 54.7238 117.942 54.5261L113.943 54.4506ZM115.313 57.833L120.723 63.2423L123.551 60.4139L118.142 55.0045L115.313 57.833ZM120.723 60.4139L115.822 65.3142L118.651 68.1426L123.551 63.2423L120.723 60.4139ZM118.651 65.3142L107.493 54.156L104.664 56.9844L115.822 68.1426L118.651 65.3142ZM128.792 41.0448L130.206 42.459L131.62 41.0448L130.206 39.6306L128.792 41.0448ZM127.371 40.5145L127.476 42.5117L127.5 42.5104L127.524 42.5086L127.371 40.5145ZM125.419 44.4177L123.827 45.6279L125.213 47.4521L126.833 45.8319L125.419 44.4177ZM135.156 39.0083L133.645 40.3182L133.691 40.3721L133.742 40.4226L135.156 39.0083ZM135.601 39.4962L137.016 40.9105L138.281 39.6447L137.163 38.2469L135.601 39.4962ZM128.092 47.0057L126.678 45.5915L125.159 47.1103L126.782 48.5171L128.092 47.0057ZM128.813 47.3451L128.501 49.3207L128.558 49.3295L128.614 49.3352L128.813 47.3451ZM129.662 47.3027L130.054 49.2639L130.09 49.2567L130.125 49.2483L129.662 47.3027ZM130.51 46.9633L131.512 48.6941L131.526 48.6863L131.539 48.6783L130.51 46.9633ZM132.165 45.0117L134.074 45.6082L134.079 45.5922L134.084 45.576L132.165 45.0117ZM132.313 43.7601L131.69 41.8597L130.132 42.3706L130.328 43.9984L132.313 43.7601ZM137.553 42.0418L139.498 41.5767L138.993 39.4648L136.93 40.1414L137.553 42.0418ZM137.299 46.1148L135.405 45.4709L135.401 45.4823L137.299 46.1148ZM131.995 52.0545L131.101 50.2656L131.995 52.0545ZM128.834 52.9666L128.964 54.9624L128.99 54.9608L129.016 54.9584L128.834 52.9666ZM125.546 52.4787L126.222 50.5963L125.546 52.4787ZM120.413 47.43L122.278 46.7087L122.273 46.6957L120.413 47.43ZM119.84 44.2268L121.838 44.3067L121.839 44.3047L119.84 44.2268ZM120.604 41.0448L118.786 40.2098L118.781 40.221L120.604 41.0448ZM125.483 36.2506L126.221 38.1093L126.237 38.1032L126.252 38.0968L125.483 36.2506ZM128.601 35.6779L128.521 37.6763L128.548 37.6773L128.574 37.6777L128.601 35.6779ZM131.741 36.3991L130.917 38.2216L130.917 38.2216L131.741 36.3991ZM130.206 39.6306C129.403 38.8276 128.359 38.4325 127.217 38.5204L127.524 42.5086C127.534 42.5078 127.528 42.5092 127.51 42.5068C127.491 42.5044 127.467 42.499 127.441 42.4891C127.414 42.4792 127.394 42.4679 127.381 42.4593C127.368 42.451 127.368 42.4487 127.378 42.459L130.206 39.6306ZM127.266 38.5172C126.101 38.5785 125.145 39.1486 124.408 39.8852L127.236 42.7136C127.365 42.5853 127.45 42.5336 127.485 42.5159C127.513 42.5014 127.506 42.5101 127.476 42.5117L127.266 38.5172ZM124.408 39.8852C123.605 40.6878 123.016 41.7346 123.016 42.9964L127.016 42.9964C127.016 43.0124 127.01 43.0144 127.024 42.9848C127.042 42.9471 127.096 42.8541 127.236 42.7136L124.408 39.8852ZM123.016 42.9964C123.016 43.8809 123.217 44.8253 123.827 45.6279L127.011 43.2075C127.044 43.2502 127.047 43.2743 127.041 43.2516C127.033 43.2243 127.016 43.1455 127.016 42.9964L123.016 42.9964ZM126.833 45.8319L130.206 42.459L127.378 39.6306L124.005 43.0035L126.833 45.8319ZM133.19 39.8286C133.338 39.9763 133.489 40.1392 133.645 40.3182L136.667 37.6985C136.455 37.4532 136.239 37.2202 136.019 37.0002L133.19 39.8286ZM133.742 40.4226C133.894 40.5746 133.988 40.6806 134.04 40.7456L137.163 38.2469C136.989 38.029 136.786 37.8098 136.57 37.5941L133.742 40.4226ZM134.187 38.082L126.678 45.5915L129.506 48.4199L137.016 40.9105L134.187 38.082ZM126.782 48.5171C127.267 48.9377 127.851 49.218 128.501 49.3207L129.125 45.3696C129.173 45.3772 129.228 45.3929 129.283 45.4188C129.338 45.4445 129.377 45.4731 129.402 45.4943L126.782 48.5171ZM128.614 49.3352C129.097 49.3835 129.58 49.3588 130.054 49.2639L129.27 45.3415C129.178 45.3598 129.095 45.3633 129.012 45.3551L128.614 49.3352ZM130.125 49.2483C130.614 49.1318 131.078 48.9454 131.512 48.6941L129.508 45.2324C129.405 45.2923 129.303 45.3322 129.199 45.3571L130.125 49.2483ZM131.539 48.6783C131.958 48.427 132.343 48.129 132.688 47.7835L129.86 44.9551C129.753 45.0622 129.628 45.1601 129.481 45.2483L131.539 48.6783ZM132.688 47.7835C133.293 47.1788 133.808 46.4581 134.074 45.6082L130.256 44.4151C130.239 44.4703 130.16 44.6548 129.86 44.9551L132.688 47.7835ZM134.084 45.576C134.273 44.9335 134.384 44.2307 134.299 43.5218L130.328 43.9984C130.327 43.9966 130.34 44.1282 130.246 44.4473L134.084 45.576ZM132.937 45.6605L138.176 43.9423L136.93 40.1414L131.69 41.8597L132.937 45.6605ZM135.608 42.507C135.821 43.3992 135.779 44.3712 135.405 45.471L139.192 46.7586C139.78 45.0299 139.907 43.2866 139.498 41.5767L135.608 42.507ZM135.401 45.4823C135.05 46.5363 134.384 47.6005 133.318 48.6674L136.146 51.4958C137.568 50.0737 138.614 48.4934 139.196 46.7472L135.401 45.4823ZM133.318 48.6674C132.663 49.3217 131.927 49.8528 131.101 50.2656L132.89 53.8433C134.1 53.2379 135.188 52.4537 136.146 51.4958L133.318 48.6674ZM131.101 50.2656C130.296 50.6679 129.484 50.8994 128.653 50.9748L129.016 54.9584C130.363 54.8359 131.658 54.4593 132.89 53.8433L131.101 50.2656ZM128.705 50.9708C127.909 51.0225 127.087 50.9067 126.222 50.5963L124.871 54.3611C126.212 54.8427 127.582 55.0522 128.964 54.9624L128.705 50.9708ZM126.222 50.5963C125.446 50.3176 124.642 49.807 123.821 48.9856L120.993 51.814C122.151 52.9725 123.441 53.8479 124.871 54.3611L126.222 50.5963ZM123.821 48.9856C123.071 48.2353 122.574 47.4748 122.278 46.7087L118.547 48.1513C119.071 49.5065 119.905 50.7259 120.993 51.814L123.821 48.9856ZM122.273 46.6957C121.942 45.8565 121.808 45.0655 121.838 44.3067L117.842 44.1469C117.787 45.5094 118.035 46.8538 118.553 48.1643L122.273 46.6957ZM121.839 44.3047C121.871 43.4836 122.061 42.6755 122.426 41.8687L118.781 40.221C118.213 41.4788 117.894 42.7921 117.842 44.1489L121.839 44.3047ZM122.421 41.8798C122.797 41.0613 123.328 40.3003 124.033 39.5952L121.205 36.7668C120.185 37.7871 119.372 38.9353 118.786 40.2098L122.421 41.8798ZM124.033 39.5952C124.74 38.8886 125.47 38.4078 126.221 38.1093L124.744 34.3919C123.431 34.9137 122.252 35.7198 121.205 36.7668L124.033 39.5952ZM126.252 38.0968C127.012 37.7799 127.763 37.6459 128.521 37.6763L128.681 33.6795C127.318 33.625 125.99 33.8728 124.714 34.4045L126.252 38.0968ZM128.574 37.6777C129.342 37.6879 130.118 37.8604 130.917 38.2216L132.565 34.5767C131.299 34.0045 129.982 33.6961 128.628 33.678L128.574 37.6777ZM130.917 38.2216C131.71 38.5799 132.468 39.1062 133.19 39.8286L136.019 37.0002C134.987 35.9689 133.837 35.1517 132.565 34.5767L130.917 38.2216ZM150.745 33.2196L149.331 34.6338L150.745 36.0481L152.159 34.6338L150.745 33.2196ZM143.448 26.3465L142.898 28.2696L142.898 28.2696L143.448 26.3465ZM142.005 27.7042L140.005 27.7042L140.005 27.7364L140.006 27.7687L142.005 27.7042ZM148.815 35.15L150.229 36.5642L151.643 35.15L150.229 33.7358L148.815 35.15ZM143.915 40.0503L142.5 41.4645L143.915 42.8787L145.329 41.4645L143.915 40.0503ZM132.756 28.8921L131.342 27.4779L129.928 28.8921L131.342 30.3063L132.756 28.8921ZM137.529 24.1192L138.944 22.7049L137.529 21.2907L136.115 22.7049L137.529 24.1192ZM138.76 25.3495L137.346 26.7637L138.76 28.1779L140.174 26.7637L138.76 25.3495ZM138.802 25.3071L140.216 26.7213L140.913 26.025L140.785 25.0484L138.802 25.3071ZM138.781 24.2677L140.775 24.421L140.776 24.4101L138.781 24.2677ZM138.993 23.0797L140.916 23.6292L140.921 23.6121L140.926 23.595L138.993 23.0797ZM139.523 21.8281L141.249 22.8396L141.269 22.8048L141.288 22.7693L139.523 21.8281ZM142.748 19.1128L143.38 21.0102L143.401 21.0035L143.421 20.9963L142.748 19.1128ZM145.23 19.0492L144.693 20.9758L147.521 21.764L147.219 18.8434L145.23 19.0492ZM145.442 16.546L143.509 16.0307L145.442 16.546ZM149.43 12.558L149.899 14.5021L149.911 14.4993L149.923 14.4963L149.43 12.558ZM151.827 12.4943L151.393 14.4467L151.414 14.4513L151.435 14.4555L151.827 12.4943ZM153.991 13.3853L152.89 15.0548L152.915 15.0715L152.941 15.0873L153.991 13.3853ZM162.476 21.4887L163.89 22.9029L165.305 21.4887L163.89 20.0745L162.476 21.4887ZM157.576 26.389L156.162 27.8032L157.576 29.2174L158.99 27.8032L157.576 26.389ZM150.194 19.4735L149.801 21.4346L149.878 21.4499L149.955 21.4592L150.194 19.4735ZM148.878 20.9584L150.863 20.7103L150.86 20.6845L150.856 20.6588L148.878 20.9584ZM155.645 28.3194L157.06 29.7336L158.474 28.3194L157.06 26.9052L155.645 28.3194ZM152.159 31.8054L146.305 25.9506L143.476 28.779L149.331 34.6338L152.159 31.8054ZM146.305 25.9506C145.685 25.3314 144.904 24.6826 143.997 24.4235L142.898 28.2696C142.809 28.2441 142.823 28.2289 142.952 28.3199C143.073 28.4053 143.247 28.5501 143.476 28.779L146.305 25.9506ZM143.997 24.4235C142.809 24.084 141.718 24.4847 140.952 25.2505L143.78 28.079C143.759 28.1005 143.65 28.1997 143.445 28.26C143.227 28.3239 143.029 28.3068 142.898 28.2696L143.997 24.4235ZM140.952 25.2505C140.225 25.9774 140.005 26.9027 140.005 27.7042L144.005 27.7042C144.005 27.6508 144.013 27.6802 143.985 27.7605C143.954 27.8499 143.89 27.9689 143.78 28.079L140.952 25.2505ZM140.006 27.7687C140.046 29.0044 140.821 29.9843 141.482 30.6458L144.311 27.8173C144.099 27.6054 144.002 27.4681 143.966 27.4071C143.93 27.3449 143.998 27.4323 144.004 27.6397L140.006 27.7687ZM141.482 30.6458L147.401 36.5642L150.229 33.7358L144.311 27.8173L141.482 30.6458ZM147.401 33.7358L142.5 38.6361L145.329 41.4645L150.229 36.5642L147.401 33.7358ZM145.329 38.6361L134.171 27.4779L131.342 30.3063L142.5 41.4645L145.329 38.6361ZM134.171 30.3063L138.944 25.5334L136.115 22.7049L131.342 27.4779L134.171 30.3063ZM136.115 25.5334L137.346 26.7637L140.174 23.9353L138.944 22.7049L136.115 25.5334ZM140.174 26.7637L140.216 26.7213L137.388 23.8929L137.346 23.9353L140.174 26.7637ZM140.785 25.0484C140.763 24.8754 140.756 24.668 140.775 24.421L136.787 24.1143C136.749 24.6026 136.757 25.0883 136.819 25.5658L140.785 25.0484ZM140.776 24.4101C140.794 24.157 140.84 23.8973 140.916 23.6292L137.07 22.5303C136.92 23.0541 136.825 23.5864 136.786 24.1252L140.776 24.4101ZM140.926 23.595C140.989 23.3584 141.092 23.1071 141.249 22.8396L137.798 20.8167C137.474 21.3694 137.224 21.9525 137.061 22.5644L140.926 23.595ZM141.288 22.7693C141.411 22.5391 141.591 22.2924 141.85 22.0332L139.021 19.2048C138.517 19.7092 138.089 20.2687 137.759 20.887L141.288 22.7693ZM141.85 22.0332C142.414 21.469 142.927 21.1612 143.38 21.0102L142.115 17.2155C140.956 17.6019 139.928 18.2982 139.021 19.2048L141.85 22.0332ZM143.421 20.9963C143.798 20.8617 144.201 20.8387 144.693 20.9758L145.767 17.1226C144.533 16.7789 143.282 16.7983 142.075 17.2294L143.421 20.9963ZM147.219 18.8434C147.161 18.2803 147.207 17.6904 147.374 17.0614L143.509 16.0307C143.225 17.0988 143.129 18.1776 143.24 19.255L147.219 18.8434ZM147.374 17.0614C147.485 16.645 147.777 16.106 148.426 15.4571L145.598 12.6287C144.606 13.6203 143.851 14.75 143.509 16.0307L147.374 17.0614ZM148.426 15.4571C149.041 14.8425 149.536 14.5899 149.899 14.5021L148.961 10.6138C147.684 10.922 146.567 11.6594 145.598 12.6287L148.426 15.4571ZM149.923 14.4963C150.485 14.3535 150.965 14.3515 151.393 14.4467L152.261 10.5419C151.162 10.2977 150.044 10.3382 148.937 10.6196L149.923 14.4963ZM151.435 14.4555C151.959 14.5603 152.439 14.7579 152.89 15.0548L155.092 11.7157C154.213 11.1359 153.251 10.7395 152.219 10.5332L151.435 14.4555ZM152.941 15.0873C153.497 15.4304 153.935 15.7756 154.274 16.1147L157.102 13.2863C156.508 12.692 155.814 12.1604 155.041 11.6832L152.941 15.0873ZM154.274 16.1147L161.062 22.9029L163.89 20.0745L157.102 13.2863L154.274 16.1147ZM161.062 20.0745L156.162 24.9748L158.99 27.8032L163.89 22.9029L161.062 20.0745ZM158.99 24.9748L153.05 19.0351L150.222 21.8635L156.162 27.8032L158.99 24.9748ZM153.05 19.0351C152.695 18.6796 152.323 18.3517 151.94 18.0927C151.583 17.8514 151.064 17.5635 150.432 17.4877L149.955 21.4592C149.802 21.4408 149.705 21.401 149.676 21.3885C149.646 21.3751 149.652 21.3744 149.699 21.4058C149.797 21.472 149.969 21.6108 150.222 21.8635L153.05 19.0351ZM150.586 17.5123C149.427 17.2805 148.447 17.755 147.782 18.4199L150.611 21.2483C150.608 21.2507 150.528 21.3303 150.36 21.3913C150.175 21.4581 149.975 21.4694 149.801 21.4346L150.586 17.5123ZM147.782 18.4199C146.966 19.2365 146.755 20.2913 146.901 21.258L150.856 20.6588C150.854 20.6488 150.869 20.7331 150.829 20.8719C150.787 21.0224 150.704 21.155 150.611 21.2483L147.782 18.4199ZM146.894 21.2065C147.029 22.291 147.659 23.1617 148.313 23.8151L151.141 20.9867C150.974 20.8192 150.892 20.7037 150.857 20.6444C150.824 20.5878 150.851 20.613 150.863 20.7103L146.894 21.2065ZM148.313 23.8151L154.231 29.7336L157.06 26.9052L151.141 20.9867L148.313 23.8151ZM154.231 26.9052L149.331 31.8054L152.159 34.6338L157.06 29.7336L154.231 26.9052Z" fill="white" fill-opacity="0.6" mask="url(#path-2-outside-1_2511_76595)"/>
<mask id="path-4-outside-2_2511_76595" maskUnits="userSpaceOnUse" x="91.0002" y="69.142" width="67.8822" height="67.8822" fill="black">
<rect fill="white" x="91.0002" y="69.142" width="67.8822" height="67.8822"/>
<path d="M104.215 123.663C102.692 122.14 101.59 120.501 100.91 118.746C100.211 116.972 99.8974 115.19 99.9691 113.398C100.059 111.589 100.515 109.807 101.339 108.051C102.163 106.296 103.328 104.666 104.833 103.161C106.337 101.656 107.967 100.492 109.723 99.6678C111.478 98.8438 113.261 98.387 115.07 98.2975C116.879 98.2079 118.671 98.5124 120.444 99.211C122.2 99.8917 123.839 100.993 125.361 102.516C126.884 104.039 128.004 105.696 128.72 107.487C129.437 109.278 129.768 111.097 129.714 112.942C129.643 114.769 129.204 116.569 128.398 118.343C127.592 120.116 126.436 121.755 124.931 123.26C123.427 124.764 121.788 125.92 120.014 126.726C118.241 127.532 116.44 127.971 114.613 128.043C112.786 128.078 110.977 127.738 109.186 127.022C107.394 126.305 105.737 125.185 104.215 123.663ZM111.013 116.865C111.64 117.492 112.302 117.975 113.001 118.316C113.718 118.638 114.425 118.826 115.124 118.88C115.84 118.916 116.539 118.808 117.22 118.557C117.882 118.289 118.483 117.886 119.02 117.348C119.557 116.811 119.951 116.22 120.202 115.575C120.453 114.894 120.561 114.196 120.525 113.479C120.489 112.763 120.301 112.055 119.96 111.356C119.638 110.64 119.163 109.968 118.536 109.341C117.927 108.732 117.273 108.275 116.575 107.971C115.876 107.63 115.187 107.46 114.506 107.46C113.807 107.442 113.126 107.568 112.464 107.836C111.819 108.087 111.228 108.481 110.69 109.019C110.153 109.556 109.75 110.156 109.481 110.819C109.212 111.482 109.087 112.162 109.105 112.861C109.123 113.524 109.293 114.213 109.615 114.93C109.938 115.611 110.404 116.256 111.013 116.865ZM133.773 102.649L132.51 87.1449L125.685 93.9699L120.392 88.6765L135.573 73.4949L140.195 78.1166L141.565 94.6417L149.358 86.8493L154.812 92.304L139.12 107.996L133.773 102.649Z"/>
</mask>
<path d="M100.91 118.746L102.774 118.023L102.77 118.013L100.91 118.746ZM99.9691 113.398L97.9715 113.3L97.9711 113.309L97.9707 113.318L99.9691 113.398ZM101.339 108.051L103.15 108.901V108.901L101.339 108.051ZM109.723 99.6678L110.573 101.478L110.573 101.478L109.723 99.6678ZM115.07 98.2975L115.169 100.295L115.169 100.295L115.07 98.2975ZM120.444 99.211L119.711 101.072L119.721 101.076L120.444 99.211ZM128.72 107.487L126.863 108.23V108.23L128.72 107.487ZM129.714 112.942L131.713 113.02L131.713 113.01L131.713 113L129.714 112.942ZM128.398 118.343L126.577 117.515L128.398 118.343ZM120.014 126.726L119.187 124.905L120.014 126.726ZM114.613 128.043L114.652 130.042L114.672 130.042L114.692 130.041L114.613 128.043ZM109.186 127.022L109.928 125.165L109.928 125.165L109.186 127.022ZM113.001 118.316L112.125 120.114L112.153 120.127L112.18 120.139L113.001 118.316ZM115.124 118.88L114.97 120.874L114.997 120.876L115.024 120.877L115.124 118.88ZM117.22 118.557L117.911 120.434L117.941 120.423L117.971 120.411L117.22 118.557ZM120.202 115.575L122.066 116.3L122.073 116.283L122.079 116.266L120.202 115.575ZM120.525 113.479L118.527 113.579L120.525 113.479ZM119.96 111.356L118.137 112.177L118.149 112.205L118.162 112.232L119.96 111.356ZM116.575 107.971L115.699 109.769L115.737 109.787L115.776 109.804L116.575 107.971ZM114.506 107.46L114.455 109.459L114.48 109.46L114.506 109.46L114.506 107.46ZM112.464 107.836L113.189 109.7L113.202 109.695L113.215 109.69L112.464 107.836ZM109.481 110.819L111.335 111.57L111.335 111.57L109.481 110.819ZM109.105 112.861L107.106 112.912L107.106 112.915L109.105 112.861ZM109.615 114.93L107.792 115.751L107.8 115.769L107.808 115.786L109.615 114.93ZM105.629 122.249C104.275 120.894 103.341 119.484 102.774 118.023L99.0448 119.469C99.8395 121.518 101.109 123.386 102.8 125.077L105.629 122.249ZM102.77 118.013C102.167 116.481 101.908 114.975 101.967 113.478L97.9707 113.318C97.8872 115.405 98.2548 117.463 99.0487 119.479L102.77 118.013ZM101.967 113.497C102.042 111.966 102.429 110.438 103.15 108.901L99.529 107.201C98.6022 109.176 98.0749 111.212 97.9715 113.3L101.967 113.497ZM103.15 108.901C103.866 107.375 104.89 105.932 106.247 104.575L103.418 101.747C101.766 103.399 100.461 105.217 99.529 107.201L103.15 108.901ZM106.247 104.575C107.604 103.218 109.046 102.195 110.573 101.478L108.873 97.8574C106.889 98.7889 105.071 100.094 103.418 101.747L106.247 104.575ZM110.573 101.478C112.109 100.757 113.638 100.371 115.169 100.295L114.971 96.2999C112.884 96.4032 110.848 96.9306 108.873 97.8574L110.573 101.478ZM115.169 100.295C116.68 100.22 118.188 100.472 119.711 101.072L121.177 97.3502C119.153 96.553 117.079 96.1955 114.971 96.2999L115.169 100.295ZM119.721 101.076C121.183 101.643 122.593 102.576 123.947 103.93L126.776 101.102C125.084 99.4108 123.217 98.141 121.167 97.3463L119.721 101.076ZM123.947 103.93C125.3 105.284 126.258 106.718 126.863 108.23L130.577 106.744C129.749 104.674 128.467 102.794 126.776 101.102L123.947 103.93ZM126.863 108.23C127.483 109.778 127.76 111.325 127.715 112.883L131.713 113C131.775 110.868 131.391 108.778 130.577 106.744L126.863 108.23ZM127.716 112.863C127.655 114.415 127.283 115.962 126.577 117.515L130.218 119.17C131.125 117.176 131.63 115.123 131.713 113.02L127.716 112.863ZM126.577 117.515C125.879 119.051 124.868 120.495 123.517 121.846L126.346 124.674C128.004 123.015 129.304 121.181 130.218 119.17L126.577 117.515ZM123.517 121.846C122.166 123.196 120.722 124.207 119.187 124.905L120.842 128.547C122.853 127.633 124.687 126.333 126.346 124.674L123.517 121.846ZM119.187 124.905C117.633 125.611 116.087 125.983 114.535 126.044L114.692 130.041C116.794 129.959 118.848 129.453 120.842 128.547L119.187 124.905ZM114.574 126.043C113.029 126.073 111.485 125.787 109.928 125.165L108.443 128.878C110.469 129.689 112.543 130.084 114.652 130.042L114.574 126.043ZM109.928 125.165C108.416 124.56 106.982 123.602 105.629 122.249L102.8 125.077C104.492 126.769 106.372 128.05 108.443 128.878L109.928 125.165ZM109.598 118.279C110.361 119.041 111.201 119.663 112.125 120.114L113.877 116.518C113.404 116.287 112.919 115.942 112.427 115.45L109.598 118.279ZM112.18 120.139C113.082 120.545 114.015 120.801 114.97 120.874L115.277 116.886C114.835 116.852 114.353 116.731 113.822 116.492L112.18 120.139ZM115.024 120.877C116.013 120.927 116.98 120.777 117.911 120.434L116.528 116.681C116.098 116.839 115.668 116.905 115.224 116.882L115.024 120.877ZM117.971 120.411C118.897 120.035 119.72 119.477 120.434 118.763L117.606 115.934C117.246 116.294 116.868 116.542 116.468 116.704L117.971 120.411ZM120.434 118.763C121.148 118.048 121.705 117.228 122.066 116.3L118.338 114.85C118.197 115.212 117.966 115.573 117.606 115.934L120.434 118.763ZM122.079 116.266C122.422 115.336 122.572 114.368 122.522 113.379L118.527 113.579C118.549 114.023 118.484 114.453 118.326 114.883L122.079 116.266ZM122.522 113.379C122.472 112.371 122.207 111.401 121.758 110.48L118.162 112.232C118.395 112.709 118.506 113.154 118.527 113.579L122.522 113.379ZM121.784 110.536C121.35 109.572 120.727 108.703 119.951 107.927L117.122 110.755C117.6 111.233 117.926 111.708 118.137 112.177L121.784 110.536ZM119.951 107.927C119.187 107.164 118.33 106.554 117.374 106.137L115.776 109.804C116.217 109.996 116.667 110.3 117.122 110.755L119.951 107.927ZM117.451 106.173C116.518 105.718 115.53 105.46 114.506 105.46L114.506 109.46C114.843 109.46 115.234 109.542 115.699 109.769L117.451 106.173ZM114.557 105.461C113.577 105.436 112.624 105.613 111.712 105.983L113.215 109.69C113.629 109.522 114.037 109.449 114.455 109.459L114.557 105.461ZM111.739 105.972C110.811 106.333 109.99 106.89 109.276 107.604L112.104 110.433C112.465 110.072 112.827 109.841 113.189 109.7L111.739 105.972ZM109.276 107.604C108.561 108.319 108.003 109.141 107.628 110.067L111.335 111.57C111.496 111.171 111.744 110.793 112.104 110.433L109.276 107.604ZM107.628 110.067C107.258 110.979 107.08 111.932 107.106 112.912L111.104 112.81C111.094 112.392 111.167 111.985 111.335 111.57L107.628 110.067ZM107.106 112.915C107.132 113.887 107.38 114.837 107.792 115.751L111.439 114.109C111.206 113.59 111.114 113.161 111.104 112.807L107.106 112.915ZM107.808 115.786C108.242 116.701 108.85 117.531 109.598 118.279L112.427 115.45C111.957 114.981 111.634 114.52 111.423 114.074L107.808 115.786ZM133.773 102.649L131.78 102.811L131.839 103.544L132.359 104.063L133.773 102.649ZM132.51 87.1449L134.504 86.9825L134.153 82.674L131.096 85.7307L132.51 87.1449ZM125.685 93.9699L124.271 95.3841L125.685 96.7983L127.099 95.3841L125.685 93.9699ZM120.392 88.6765L118.978 87.2623L117.563 88.6765L118.978 90.0907L120.392 88.6765ZM135.573 73.4949L136.988 72.0807L135.573 70.6665L134.159 72.0807L135.573 73.4949ZM140.195 78.1166L142.188 77.9513L142.128 77.2207L141.609 76.7024L140.195 78.1166ZM141.565 94.6417L139.572 94.8069L139.929 99.1067L142.98 96.0559L141.565 94.6417ZM149.358 86.8493L150.772 85.4351L149.358 84.0209L147.944 85.4351L149.358 86.8493ZM154.812 92.304L156.227 93.7182L157.641 92.304L156.227 90.8897L154.812 92.304ZM139.12 107.996L137.706 109.41L139.12 110.825L140.534 109.41L139.12 107.996ZM135.766 102.487L134.504 86.9825L130.517 87.3073L131.78 102.811L135.766 102.487ZM131.096 85.7307L124.271 92.5557L127.099 95.3841L133.924 88.5591L131.096 85.7307ZM127.099 92.5557L121.806 87.2623L118.978 90.0907L124.271 95.3841L127.099 92.5557ZM121.806 90.0907L136.988 74.9091L134.159 72.0807L118.978 87.2623L121.806 90.0907ZM134.159 74.9091L138.781 79.5308L141.609 76.7024L136.988 72.0807L134.159 74.9091ZM138.202 78.2819L139.572 94.8069L143.559 94.4764L142.188 77.9513L138.202 78.2819ZM142.98 96.0559L150.772 88.2636L147.944 85.4351L140.151 93.2274L142.98 96.0559ZM147.944 88.2636L153.398 93.7182L156.227 90.8897L150.772 85.4351L147.944 88.2636ZM153.398 90.8897L137.706 106.582L140.534 109.41L156.227 93.7182L153.398 90.8897ZM140.534 106.582L135.187 101.235L132.359 104.063L137.706 109.41L140.534 106.582Z" fill="white" fill-opacity="0.6" mask="url(#path-4-outside-2_2511_76595)"/>
<path d="M56.6144 67.667C57.3338 66.9476 58.0103 66.5681 58.6438 66.5285C59.284 66.4823 59.8747 66.7298 60.4158 67.271C60.7326 67.5878 60.9636 67.9508 61.1088 68.3599C61.254 68.7691 61.2573 69.2212 61.1187 69.7162C60.9801 70.198 60.6435 70.7061 60.1089 71.2407L59.6437 71.706L61.5147 73.577L60.1782 74.9134L54.7731 69.5083L56.6144 67.667ZM57.6242 68.7361L57.149 69.2113L58.5943 70.6566L58.921 70.3299C59.1058 70.1452 59.2411 69.9571 59.3269 69.7657C59.4127 69.5743 59.4391 69.3829 59.4061 69.1915C59.3731 69.0001 59.2675 68.8153 59.0893 68.6371C58.8649 68.4127 58.6339 68.3071 58.3963 68.3203C58.1521 68.3269 57.8948 68.4655 57.6242 68.7361ZM62.3885 61.8929L63.1112 62.6155L62.7251 63.5758L66.1108 66.9614L67.0512 66.5555L67.7937 67.298L65.101 69.9907L64.3585 69.2482L64.7842 68.2879L61.3986 64.9023L60.4185 65.3082L59.6959 64.5855L62.3885 61.8929ZM59.0093 61.0352C59.227 60.8174 59.4679 60.6821 59.7319 60.6293C59.9893 60.5699 60.2566 60.6788 60.5338 60.956C60.8044 61.2266 60.9133 61.4938 60.8605 61.7578C60.8077 62.0218 60.6724 62.2627 60.4546 62.4805C60.2302 62.7049 59.9893 62.8402 59.7319 62.8864C59.4679 62.9392 59.2006 62.8303 58.9301 62.5597C58.6529 62.2825 58.544 62.0152 58.6034 61.7578C58.6496 61.5004 58.7849 61.2596 59.0093 61.0352ZM69.0378 66.0538L63.6327 60.6487L65.3354 58.946L71.5226 60.5992C71.4302 60.5068 71.3015 60.3847 71.1365 60.2329C70.9715 60.0811 70.7966 59.9194 70.6118 59.7478C70.4205 59.5697 70.239 59.3948 70.0674 59.2232L67.5628 56.7186L68.7408 55.5406L74.146 60.9457L72.4433 62.6484L66.2066 60.9457C66.3056 61.0315 66.4376 61.1569 66.6026 61.3219C66.7741 61.4803 66.9589 61.6519 67.1569 61.8366C67.3549 62.0214 67.5463 62.1996 67.7311 62.3712L70.2258 64.8659L69.0378 66.0538ZM75.9218 59.1699L70.5166 53.7648L72.3085 51.973L77.5552 54.725L77.5849 54.6953L74.8823 49.3991L76.6543 47.6271L82.0595 53.0322L80.8319 54.2597L78.357 51.7849C78.1855 51.6133 77.9974 51.4186 77.7928 51.2008C77.5816 50.9764 77.3836 50.7652 77.1988 50.5672C77.0206 50.3626 76.8886 50.2108 76.8028 50.1118L76.7731 50.1415L79.5549 55.5368L78.3174 56.7742L72.9618 53.9331L72.9222 53.9727C73.0278 54.0518 73.1829 54.1805 73.3875 54.3587C73.5921 54.5369 73.8099 54.7349 74.0409 54.9527C74.2719 55.1573 74.4797 55.352 74.6645 55.5368L77.1097 57.9819L75.9218 59.1699ZM87.0165 48.0752L83.7595 51.3321L78.3544 45.927L81.6113 42.6701L82.6508 43.7095L80.7303 45.63L81.7697 46.6695L83.5615 44.8776L84.601 45.9171L82.8092 47.7089L84.0466 48.9463L85.9671 47.0258L87.0165 48.0752ZM90.2714 39.2369C90.8918 39.8573 91.2877 40.4975 91.4593 41.1574C91.6309 41.8042 91.5979 42.4576 91.3603 43.1175C91.1162 43.7709 90.6839 44.4078 90.0635 45.0282L88.3806 46.7111L82.9656 41.296L84.797 39.4646C85.6813 38.5803 86.602 38.1084 87.5589 38.049C88.5159 37.9896 89.42 38.3856 90.2714 39.2369ZM88.935 40.6526C88.3872 40.1048 87.8592 39.821 87.351 39.8012C86.8429 39.7814 86.3545 40.0058 85.8859 40.4744L85.3513 41.009L88.6578 44.3154L89.0835 43.8897C89.6114 43.3617 89.8622 42.8338 89.8358 42.3058C89.8094 41.7778 89.5091 41.2267 88.935 40.6526ZM91.3716 32.9098L92.0943 33.6324L91.7082 34.5927L95.0938 37.9783L96.0343 37.5724L96.7768 38.3149L94.0841 41.0076L93.3416 40.2651L93.7673 39.3049L90.3817 35.9192L89.4016 36.3251L88.679 35.6024L91.3716 32.9098ZM87.9923 32.0521C88.2101 31.8343 88.451 31.699 88.715 31.6462C88.9724 31.5868 89.2397 31.6957 89.5169 31.9729C89.7875 32.2435 89.8963 32.5108 89.8436 32.7747C89.7908 33.0387 89.6555 33.2796 89.4377 33.4974C89.2133 33.7218 88.9724 33.8571 88.715 33.9033C88.451 33.9561 88.1837 33.8472 87.9131 33.5766C87.636 33.2994 87.5271 33.0321 87.5865 32.7747C87.6327 32.5174 87.768 32.2765 87.9923 32.0521ZM97.3478 37.7439L93.8334 30.448L95.5163 28.7651L102.832 32.2596L101.416 33.6752L99.8919 32.8832L97.9813 34.7939L98.7832 36.3085L97.3478 37.7439ZM97.1993 33.4376L98.5258 32.1111L97.13 31.3488C97.0112 31.2828 96.8528 31.197 96.6548 31.0914C96.4568 30.9858 96.2555 30.877 96.0509 30.7648C95.8463 30.6394 95.6747 30.5404 95.5361 30.4678C95.6219 30.5932 95.7275 30.7582 95.8529 30.9627C95.9783 31.1673 96.0938 31.3686 96.1994 31.5666C96.3116 31.758 96.3974 31.9098 96.4568 32.022L97.1993 33.4376Z" fill="#B253E6"/>
<defs>
<linearGradient id="paint0_linear_2511_76595" x1="5.02156" y1="218.037" x2="140.786" y2="137.427" gradientUnits="userSpaceOnUse">
<stop stop-color="#911AE4"/>
<stop offset="1" stop-color="#240A71"/>
</linearGradient>
</defs>
</svg>
