<svg width="26" height="26" viewBox="0 0 26 26" fill="none" xmlns="http://www.w3.org/2000/svg">
<path d="M0 17.0976C0 14.0976 0 11.0976 0 8.13415C0.0371724 7.98781 0.0371724 7.80488 0.0743447 7.65854C0.297379 5.97561 1.18952 4.87805 2.86227 4.43902C3.75441 4.14634 4.60937 4 5.50151 4C10.4826 4 15.4637 4 20.4448 4C21.4113 4 22.3778 4.14634 23.3442 4.47561C24.5709 4.87805 25.3515 5.71951 25.6861 6.92683C25.872 7.62195 25.9463 8.35366 25.9835 9.08537C26.0207 11.4634 25.9835 13.8415 25.9835 16.2195C25.9835 16.9878 25.872 17.7561 25.6861 18.4878C25.2772 20.2073 24.1992 21.2683 22.4521 21.7073C21.7087 21.8902 20.928 22 20.1474 22C15.7239 22 11.3376 22 6.91406 22C5.98475 22 5.09261 21.9634 4.20048 21.7805C2.11882 21.378 0.706275 20.2805 0.223034 18.1951C0.148689 17.8659 0.0743447 17.4634 0 17.0976ZM10.0737 12.9268C10.0737 13.7683 10.0737 14.5732 10.0737 15.4146C10.0737 16.3659 10.5569 16.6951 11.4491 16.2561C13.1218 15.4146 14.7946 14.5366 16.4674 13.6585C16.8019 13.5122 17.0249 13.2927 17.0249 12.8902C17.0249 12.4878 16.8019 12.3049 16.4674 12.122C14.7574 11.2439 13.0475 10.3659 11.3376 9.52439C10.6313 9.15854 10.0737 9.48781 10.0737 10.2927C10.0365 11.1341 10.0737 12.0122 10.0737 12.9268Z" fill="#F8CF1C"/>
</svg>
